<?xml version="1.0" encoding="UTF-8" standalone="no"?>
<svg width="2360.0px" height="1247.0px" version="1.1" xmlns="http://www.w3.org/2000/svg" xmlns:xlink="http://www.w3.org/1999/xlink">
<g>
<rect x="0.0px" y="0.0px" width="2360.0px" height="1247.0px" rx="0.0px" ry="0.0px" style="fill:rgb(255,255,255);"/>
<rect x="1060.5px" y="121.5px" width="227.0px" height="37.0px" rx="0.0px" ry="0.0px" style="fill:none; stroke:rgb(219,219,219); stroke-width:1.0px;"/>
<line x1="1174.0px" y1="158.0px" x2="1174.0px" y2="678.0px" style="stroke:rgb(219,219,219); stroke-dasharray:2 3; stroke-width:1.0px;"/>
<rect x="1060.5px" y="120.5px" width="227.0px" height="37.0px" rx="0.0px" ry="0.0px" style="fill:none; stroke:rgb(219,219,219); stroke-width:1.0px;"/>
<line x1="1174.0px" y1="157.0px" x2="1174.0px" y2="677.0px" style="stroke:rgb(219,219,219); stroke-dasharray:2 3; stroke-width:1.0px;"/>
<rect x="1059.5px" y="120.5px" width="227.0px" height="37.0px" rx="0.0px" ry="0.0px" style="fill:none; stroke:rgb(169,169,169); stroke-width:1.0px;"/>
<line x1="1173.0px" y1="157.0px" x2="1173.0px" y2="677.0px" style="stroke:rgb(169,169,169); stroke-dasharray:2 3; stroke-width:1.0px;"/>
<rect x="1059.5px" y="119.5px" width="227.0px" height="37.0px" rx="0.0px" ry="0.0px" style="fill:none; stroke:rgb(169,169,169); stroke-width:1.0px;"/>
<line x1="1173.0px" y1="156.0px" x2="1173.0px" y2="676.0px" style="stroke:rgb(169,169,169); stroke-dasharray:2 3; stroke-width:1.0px;"/>
<rect x="1058.5px" y="119.5px" width="227.0px" height="37.0px" rx="0.0px" ry="0.0px" style="fill:rgb(255,255,255); stroke:rgb(0,0,0); stroke-width:1.0px;"/>
<line x1="1172.0px" y1="156.0px" x2="1172.0px" y2="676.0px" style="stroke:rgb(0,0,0); stroke-dasharray:2 3; stroke-width:1.0px;"/>
<text transform="translate(1154.0,130.0), rotate(-0.0)" x="0px" y="0px" textLength="37.0px"
 style="font-family:Arial; font-size:13.0px; fill:rgb(0,0,0); stroke:none; baseline-shift:-13.0px; ">
   Player
</text>
<rect x="1937.5px" y="123.5px" width="236.0px" height="37.0px" rx="0.0px" ry="0.0px" style="fill:none; stroke:rgb(219,219,219); stroke-width:1.0px;"/>
<line x1="2055.0px" y1="160.0px" x2="2055.0px" y2="1162.0px" style="stroke:rgb(219,219,219); stroke-dasharray:2 3; stroke-width:1.0px;"/>
<rect x="1937.5px" y="122.5px" width="236.0px" height="37.0px" rx="0.0px" ry="0.0px" style="fill:none; stroke:rgb(219,219,219); stroke-width:1.0px;"/>
<line x1="2055.0px" y1="159.0px" x2="2055.0px" y2="1161.0px" style="stroke:rgb(219,219,219); stroke-dasharray:2 3; stroke-width:1.0px;"/>
<rect x="1936.5px" y="122.5px" width="236.0px" height="37.0px" rx="0.0px" ry="0.0px" style="fill:none; stroke:rgb(169,169,169); stroke-width:1.0px;"/>
<line x1="2054.0px" y1="159.0px" x2="2054.0px" y2="1161.0px" style="stroke:rgb(169,169,169); stroke-dasharray:2 3; stroke-width:1.0px;"/>
<rect x="1936.5px" y="121.5px" width="236.0px" height="37.0px" rx="0.0px" ry="0.0px" style="fill:none; stroke:rgb(169,169,169); stroke-width:1.0px;"/>
<line x1="2054.0px" y1="158.0px" x2="2054.0px" y2="1160.0px" style="stroke:rgb(169,169,169); stroke-dasharray:2 3; stroke-width:1.0px;"/>
<rect x="1935.5px" y="121.5px" width="236.0px" height="37.0px" rx="0.0px" ry="0.0px" style="fill:rgb(255,255,255); stroke:rgb(0,0,0); stroke-width:1.0px;"/>
<line x1="2053.0px" y1="158.0px" x2="2053.0px" y2="1160.0px" style="stroke:rgb(0,0,0); stroke-dasharray:2 3; stroke-width:1.0px;"/>
<text transform="translate(2035.0,132.0), rotate(-0.0)" x="0px" y="0px" textLength="36.0px"
 style="font-family:Arial; font-size:13.0px; fill:rgb(0,0,0); stroke:none; baseline-shift:-13.0px; ">
   Server
</text>
<rect x="1507.5px" y="122.5px" width="208.0px" height="38.0px" rx="0.0px" ry="0.0px" style="fill:none; stroke:rgb(219,219,219); stroke-width:1.0px;"/>
<line x1="1611.0px" y1="160.0px" x2="1611.0px" y2="982.0px" style="stroke:rgb(219,219,219); stroke-dasharray:2 3; stroke-width:1.0px;"/>
<rect x="1507.5px" y="121.5px" width="208.0px" height="38.0px" rx="0.0px" ry="0.0px" style="fill:none; stroke:rgb(219,219,219); stroke-width:1.0px;"/>
<line x1="1611.0px" y1="159.0px" x2="1611.0px" y2="981.0px" style="stroke:rgb(219,219,219); stroke-dasharray:2 3; stroke-width:1.0px;"/>
<rect x="1506.5px" y="121.5px" width="208.0px" height="38.0px" rx="0.0px" ry="0.0px" style="fill:none; stroke:rgb(169,169,169); stroke-width:1.0px;"/>
<line x1="1610.0px" y1="159.0px" x2="1610.0px" y2="981.0px" style="stroke:rgb(169,169,169); stroke-dasharray:2 3; stroke-width:1.0px;"/>
<rect x="1506.5px" y="120.5px" width="208.0px" height="38.0px" rx="0.0px" ry="0.0px" style="fill:none; stroke:rgb(169,169,169); stroke-width:1.0px;"/>
<line x1="1610.0px" y1="158.0px" x2="1610.0px" y2="980.0px" style="stroke:rgb(169,169,169); stroke-dasharray:2 3; stroke-width:1.0px;"/>
<rect x="1505.5px" y="120.5px" width="208.0px" height="38.0px" rx="0.0px" ry="0.0px" style="fill:rgb(255,255,255); stroke:rgb(0,0,0); stroke-width:1.0px;"/>
<line x1="1609.0px" y1="158.0px" x2="1609.0px" y2="980.0px" style="stroke:rgb(0,0,0); stroke-dasharray:2 3; stroke-width:1.0px;"/>
<text transform="translate(1581.0,131.0), rotate(-0.0)" x="0px" y="0px" textLength="55.0px"
 style="font-family:Arial; font-size:13.0px; fill:rgb(0,0,0); stroke:none; baseline-shift:-13.0px; ">
   Controller
</text>
<rect x="1715.5px" y="123.5px" width="226.0px" height="37.0px" rx="0.0px" ry="0.0px" style="fill:none; stroke:rgb(219,219,219); stroke-width:1.0px;"/>
<line x1="1828.0px" y1="160.0px" x2="1828.0px" y2="1181.0px" style="stroke:rgb(219,219,219); stroke-dasharray:2 3; stroke-width:1.0px;"/>
<rect x="1715.5px" y="122.5px" width="226.0px" height="37.0px" rx="0.0px" ry="0.0px" style="fill:none; stroke:rgb(219,219,219); stroke-width:1.0px;"/>
<line x1="1828.0px" y1="159.0px" x2="1828.0px" y2="1180.0px" style="stroke:rgb(219,219,219); stroke-dasharray:2 3; stroke-width:1.0px;"/>
<rect x="1714.5px" y="122.5px" width="226.0px" height="37.0px" rx="0.0px" ry="0.0px" style="fill:none; stroke:rgb(169,169,169); stroke-width:1.0px;"/>
<line x1="1827.0px" y1="159.0px" x2="1827.0px" y2="1180.0px" style="stroke:rgb(169,169,169); stroke-dasharray:2 3; stroke-width:1.0px;"/>
<rect x="1714.5px" y="121.5px" width="226.0px" height="37.0px" rx="0.0px" ry="0.0px" style="fill:none; stroke:rgb(169,169,169); stroke-width:1.0px;"/>
<line x1="1827.0px" y1="158.0px" x2="1827.0px" y2="1179.0px" style="stroke:rgb(169,169,169); stroke-dasharray:2 3; stroke-width:1.0px;"/>
<rect x="1713.5px" y="121.5px" width="226.0px" height="37.0px" rx="0.0px" ry="0.0px" style="fill:rgb(255,255,255); stroke:rgb(0,0,0); stroke-width:1.0px;"/>
<line x1="1826.0px" y1="158.0px" x2="1826.0px" y2="1179.0px" style="stroke:rgb(0,0,0); stroke-dasharray:2 3; stroke-width:1.0px;"/>
<text transform="translate(1786.0,132.0), rotate(-0.0)" x="0px" y="0px" textLength="80.0px"
 style="font-family:Arial; font-size:13.0px; fill:rgb(0,0,0); stroke:none; baseline-shift:-13.0px; ">
   ClientNetwork
</text>
<rect x="852.5px" y="122.5px" width="208.0px" height="38.0px" rx="0.0px" ry="0.0px" style="fill:none; stroke:rgb(219,219,219); stroke-width:1.0px;"/>
<line x1="956.0px" y1="160.0px" x2="956.0px" y2="774.0px" style="stroke:rgb(219,219,219); stroke-dasharray:2 3; stroke-width:1.0px;"/>
<rect x="852.5px" y="121.5px" width="208.0px" height="38.0px" rx="0.0px" ry="0.0px" style="fill:none; stroke:rgb(219,219,219); stroke-width:1.0px;"/>
<line x1="956.0px" y1="159.0px" x2="956.0px" y2="773.0px" style="stroke:rgb(219,219,219); stroke-dasharray:2 3; stroke-width:1.0px;"/>
<rect x="851.5px" y="121.5px" width="208.0px" height="38.0px" rx="0.0px" ry="0.0px" style="fill:none; stroke:rgb(169,169,169); stroke-width:1.0px;"/>
<line x1="955.0px" y1="159.0px" x2="955.0px" y2="773.0px" style="stroke:rgb(169,169,169); stroke-dasharray:2 3; stroke-width:1.0px;"/>
<rect x="851.5px" y="120.5px" width="208.0px" height="38.0px" rx="0.0px" ry="0.0px" style="fill:none; stroke:rgb(169,169,169); stroke-width:1.0px;"/>
<line x1="955.0px" y1="158.0px" x2="955.0px" y2="772.0px" style="stroke:rgb(169,169,169); stroke-dasharray:2 3; stroke-width:1.0px;"/>
<rect x="850.5px" y="120.5px" width="208.0px" height="38.0px" rx="0.0px" ry="0.0px" style="fill:rgb(255,255,255); stroke:rgb(0,0,0); stroke-width:1.0px;"/>
<line x1="954.0px" y1="158.0px" x2="954.0px" y2="772.0px" style="stroke:rgb(0,0,0); stroke-dasharray:2 3; stroke-width:1.0px;"/>
<text transform="translate(918.0,131.0), rotate(-0.0)" x="0px" y="0px" textLength="74.0px"
 style="font-family:Arial; font-size:13.0px; fill:rgb(0,0,0); stroke:none; baseline-shift:-13.0px; ">
   MoveHandler
</text>
<rect x="645.5px" y="122.5px" width="207.0px" height="38.0px" rx="0.0px" ry="0.0px" style="fill:none; stroke:rgb(219,219,219); stroke-width:1.0px;"/>
<line x1="748.0px" y1="160.0px" x2="748.0px" y2="642.0px" style="stroke:rgb(219,219,219); stroke-dasharray:2 3; stroke-width:1.0px;"/>
<rect x="645.5px" y="121.5px" width="207.0px" height="38.0px" rx="0.0px" ry="0.0px" style="fill:none; stroke:rgb(219,219,219); stroke-width:1.0px;"/>
<line x1="748.0px" y1="159.0px" x2="748.0px" y2="641.0px" style="stroke:rgb(219,219,219); stroke-dasharray:2 3; stroke-width:1.0px;"/>
<rect x="644.5px" y="121.5px" width="207.0px" height="38.0px" rx="0.0px" ry="0.0px" style="fill:none; stroke:rgb(169,169,169); stroke-width:1.0px;"/>
<line x1="747.0px" y1="159.0px" x2="747.0px" y2="641.0px" style="stroke:rgb(169,169,169); stroke-dasharray:2 3; stroke-width:1.0px;"/>
<rect x="644.5px" y="120.5px" width="207.0px" height="38.0px" rx="0.0px" ry="0.0px" style="fill:none; stroke:rgb(169,169,169); stroke-width:1.0px;"/>
<line x1="747.0px" y1="158.0px" x2="747.0px" y2="640.0px" style="stroke:rgb(169,169,169); stroke-dasharray:2 3; stroke-width:1.0px;"/>
<rect x="643.5px" y="120.5px" width="207.0px" height="38.0px" rx="0.0px" ry="0.0px" style="fill:rgb(255,255,255); stroke:rgb(0,0,0); stroke-width:1.0px;"/>
<line x1="746.0px" y1="158.0px" x2="746.0px" y2="640.0px" style="stroke:rgb(0,0,0); stroke-dasharray:2 3; stroke-width:1.0px;"/>
<text transform="translate(715.0,131.0), rotate(-0.0)" x="0px" y="0px" textLength="63.0px"
 style="font-family:Arial; font-size:13.0px; fill:rgb(0,0,0); stroke:none; baseline-shift:-13.0px; ">
   PathFinder
</text>
<rect x="437.5px" y="122.5px" width="208.0px" height="38.0px" rx="0.0px" ry="0.0px" style="fill:none; stroke:rgb(219,219,219); stroke-width:1.0px;"/>
<line x1="541.0px" y1="160.0px" x2="541.0px" y2="623.0px" style="stroke:rgb(219,219,219); stroke-dasharray:2 3; stroke-width:1.0px;"/>
<rect x="437.5px" y="121.5px" width="208.0px" height="38.0px" rx="0.0px" ry="0.0px" style="fill:none; stroke:rgb(219,219,219); stroke-width:1.0px;"/>
<line x1="541.0px" y1="159.0px" x2="541.0px" y2="622.0px" style="stroke:rgb(219,219,219); stroke-dasharray:2 3; stroke-width:1.0px;"/>
<rect x="436.5px" y="121.5px" width="208.0px" height="38.0px" rx="0.0px" ry="0.0px" style="fill:none; stroke:rgb(169,169,169); stroke-width:1.0px;"/>
<line x1="540.0px" y1="159.0px" x2="540.0px" y2="622.0px" style="stroke:rgb(169,169,169); stroke-dasharray:2 3; stroke-width:1.0px;"/>
<rect x="436.5px" y="120.5px" width="208.0px" height="38.0px" rx="0.0px" ry="0.0px" style="fill:none; stroke:rgb(169,169,169); stroke-width:1.0px;"/>
<line x1="540.0px" y1="158.0px" x2="540.0px" y2="621.0px" style="stroke:rgb(169,169,169); stroke-dasharray:2 3; stroke-width:1.0px;"/>
<rect x="435.5px" y="120.5px" width="208.0px" height="38.0px" rx="0.0px" ry="0.0px" style="fill:rgb(255,255,255); stroke:rgb(0,0,0); stroke-width:1.0px;"/>
<line x1="539.0px" y1="158.0px" x2="539.0px" y2="621.0px" style="stroke:rgb(0,0,0); stroke-dasharray:2 3; stroke-width:1.0px;"/>
<text transform="translate(464.0,131.0), rotate(-0.0)" x="0px" y="0px" textLength="149.0px"
 style="font-family:Arial; font-size:13.0px; fill:rgb(0,0,0); stroke:none; baseline-shift:-13.0px; ">
   TransitionToOtherHalfMap
</text>
<rect x="1287.5px" y="121.5px" width="227.0px" height="37.0px" rx="0.0px" ry="0.0px" style="fill:none; stroke:rgb(219,219,219); stroke-width:1.0px;"/>
<line x1="1400.0px" y1="158.0px" x2="1400.0px" y2="933.0px" style="stroke:rgb(219,219,219); stroke-dasharray:2 3; stroke-width:1.0px;"/>
<rect x="1287.5px" y="120.5px" width="227.0px" height="37.0px" rx="0.0px" ry="0.0px" style="fill:none; stroke:rgb(219,219,219); stroke-width:1.0px;"/>
<line x1="1400.0px" y1="157.0px" x2="1400.0px" y2="932.0px" style="stroke:rgb(219,219,219); stroke-dasharray:2 3; stroke-width:1.0px;"/>
<rect x="1286.5px" y="120.5px" width="227.0px" height="37.0px" rx="0.0px" ry="0.0px" style="fill:none; stroke:rgb(169,169,169); stroke-width:1.0px;"/>
<line x1="1399.0px" y1="157.0px" x2="1399.0px" y2="932.0px" style="stroke:rgb(169,169,169); stroke-dasharray:2 3; stroke-width:1.0px;"/>
<rect x="1286.5px" y="119.5px" width="227.0px" height="37.0px" rx="0.0px" ry="0.0px" style="fill:none; stroke:rgb(169,169,169); stroke-width:1.0px;"/>
<line x1="1399.0px" y1="156.0px" x2="1399.0px" y2="931.0px" style="stroke:rgb(169,169,169); stroke-dasharray:2 3; stroke-width:1.0px;"/>
<rect x="1285.5px" y="119.5px" width="227.0px" height="37.0px" rx="0.0px" ry="0.0px" style="fill:rgb(255,255,255); stroke:rgb(0,0,0); stroke-width:1.0px;"/>
<line x1="1398.0px" y1="156.0px" x2="1398.0px" y2="931.0px" style="stroke:rgb(0,0,0); stroke-dasharray:2 3; stroke-width:1.0px;"/>
<text transform="translate(1372.0,130.0), rotate(-0.0)" x="0px" y="0px" textLength="54.0px"
 style="font-family:Arial; font-size:13.0px; fill:rgb(0,0,0); stroke:none; baseline-shift:-13.0px; ">
   Converter
</text>
<rect x="229.5px" y="122.5px" width="208.0px" height="38.0px" rx="0.0px" ry="0.0px" style="fill:none; stroke:rgb(219,219,219); stroke-width:1.0px;"/>
<line x1="333.0px" y1="160.0px" x2="333.0px" y2="500.0px" style="stroke:rgb(219,219,219); stroke-dasharray:2 3; stroke-width:1.0px;"/>
<rect x="229.5px" y="121.5px" width="208.0px" height="38.0px" rx="0.0px" ry="0.0px" style="fill:none; stroke:rgb(219,219,219); stroke-width:1.0px;"/>
<line x1="333.0px" y1="159.0px" x2="333.0px" y2="499.0px" style="stroke:rgb(219,219,219); stroke-dasharray:2 3; stroke-width:1.0px;"/>
<rect x="228.5px" y="121.5px" width="208.0px" height="38.0px" rx="0.0px" ry="0.0px" style="fill:none; stroke:rgb(169,169,169); stroke-width:1.0px;"/>
<line x1="332.0px" y1="159.0px" x2="332.0px" y2="499.0px" style="stroke:rgb(169,169,169); stroke-dasharray:2 3; stroke-width:1.0px;"/>
<rect x="228.5px" y="120.5px" width="208.0px" height="38.0px" rx="0.0px" ry="0.0px" style="fill:none; stroke:rgb(169,169,169); stroke-width:1.0px;"/>
<line x1="332.0px" y1="158.0px" x2="332.0px" y2="498.0px" style="stroke:rgb(169,169,169); stroke-dasharray:2 3; stroke-width:1.0px;"/>
<rect x="227.5px" y="120.5px" width="208.0px" height="38.0px" rx="0.0px" ry="0.0px" style="fill:rgb(255,255,255); stroke:rgb(0,0,0); stroke-width:1.0px;"/>
<line x1="331.0px" y1="158.0px" x2="331.0px" y2="498.0px" style="stroke:rgb(0,0,0); stroke-dasharray:2 3; stroke-width:1.0px;"/>
<text transform="translate(280.0,131.0), rotate(-0.0)" x="0px" y="0px" textLength="101.0px"
 style="font-family:Arial; font-size:13.0px; fill:rgb(0,0,0); stroke:none; baseline-shift:-13.0px; ">
   FullMapController
</text>
<rect x="510.5px" y="491.5px" width="1134.0px" height="303.0px" rx="0.0px" ry="0.0px" style="fill:none; stroke:rgb(0,0,0); stroke-width:1.0px;"/>
<polygon points=" 510.0,491.0 510.0,510.0 548.0,510.0 556.0,506.0 556.0,491.0 " style="fill:rgb(255,255,255); stroke:rgb(0,0,0); stroke-width:1.0px;"/>
<text transform="translate(522.0,491.0), rotate(-0.0)" x="0px" y="0px" textLength="17.0px"
 style="font-family:Arial; font-size:15.0px; font-weight:bold;fill:rgb(0,0,0); stroke:none; baseline-shift:-14.0px; ">
   alt
</text>
<line x1="510.0px" y1="643.0px" x2="1644.0px" y2="643.0px" style="stroke:rgb(0,0,0); stroke-dasharray:5 3; stroke-width:1.0px;"/>
<text transform="translate(525.0,522.0), rotate(-0.0)" x="0px" y="0px" textLength="116.0px"
 style="font-family:Arial; font-size:13.0px; fill:rgb(0,0,0); stroke:none; baseline-shift:-13.0px; ">
   [playerHasTreasure]
</text>
<text transform="translate(525.0,650.0), rotate(-0.0)" x="0px" y="0px" textLength="171.0px"
 style="font-family:Arial; font-size:13.0px; fill:rgb(0,0,0); stroke:none; baseline-shift:-13.0px; ">
   [playerDoesNotHaveTreasure]
</text>
<rect x="1748.5px" y="964.5px" width="350.0px" height="94.0px" rx="0.0px" ry="0.0px" style="fill:none; stroke:rgb(0,0,0); stroke-width:1.0px;"/>
<polygon points=" 1748.0,964.0 1748.0,983.0 1790.0,983.0 1798.0,979.0 1798.0,964.0 " style="fill:rgb(255,255,255); stroke:rgb(0,0,0); stroke-width:1.0px;"/>
<text transform="translate(1759.0,964.0), rotate(-0.0)" x="0px" y="0px" textLength="31.0px"
 style="font-family:Arial; font-size:15.0px; font-weight:bold;fill:rgb(0,0,0); stroke:none; baseline-shift:-14.0px; ">
   loop
</text>
<rect x="1601.5px" y="182.5px" width="19.0px" height="661.0px" rx="0.0px" ry="0.0px" style="fill:none; stroke:rgb(219,219,219); stroke-width:1.0px;"/>
<rect x="1601.5px" y="181.5px" width="19.0px" height="661.0px" rx="0.0px" ry="0.0px" style="fill:none; stroke:rgb(219,219,219); stroke-width:1.0px;"/>
<rect x="1600.5px" y="181.5px" width="19.0px" height="661.0px" rx="0.0px" ry="0.0px" style="fill:none; stroke:rgb(169,169,169); stroke-width:1.0px;"/>
<rect x="1600.5px" y="180.5px" width="19.0px" height="661.0px" rx="0.0px" ry="0.0px" style="fill:none; stroke:rgb(169,169,169); stroke-width:1.0px;"/>
<rect x="1599.5px" y="180.5px" width="19.0px" height="661.0px" rx="0.0px" ry="0.0px" style="fill:rgb(255,255,255); stroke:rgb(0,0,0); stroke-width:1.0px;"/>
<rect x="1818.5px" y="182.5px" width="19.0px" height="113.0px" rx="0.0px" ry="0.0px" style="fill:none; stroke:rgb(219,219,219); stroke-width:1.0px;"/>
<rect x="1818.5px" y="181.5px" width="19.0px" height="113.0px" rx="0.0px" ry="0.0px" style="fill:none; stroke:rgb(219,219,219); stroke-width:1.0px;"/>
<rect x="1817.5px" y="181.5px" width="19.0px" height="113.0px" rx="0.0px" ry="0.0px" style="fill:none; stroke:rgb(169,169,169); stroke-width:1.0px;"/>
<rect x="1817.5px" y="180.5px" width="19.0px" height="113.0px" rx="0.0px" ry="0.0px" style="fill:none; stroke:rgb(169,169,169); stroke-width:1.0px;"/>
<rect x="1816.5px" y="180.5px" width="19.0px" height="113.0px" rx="0.0px" ry="0.0px" style="fill:rgb(255,255,255); stroke:rgb(0,0,0); stroke-width:1.0px;"/>
<rect x="2045.5px" y="210.5px" width="19.0px" height="66.0px" rx="0.0px" ry="0.0px" style="fill:none; stroke:rgb(219,219,219); stroke-width:1.0px;"/>
<rect x="2045.5px" y="209.5px" width="19.0px" height="66.0px" rx="0.0px" ry="0.0px" style="fill:none; stroke:rgb(219,219,219); stroke-width:1.0px;"/>
<rect x="2044.5px" y="209.5px" width="19.0px" height="66.0px" rx="0.0px" ry="0.0px" style="fill:none; stroke:rgb(169,169,169); stroke-width:1.0px;"/>
<rect x="2044.5px" y="208.5px" width="19.0px" height="66.0px" rx="0.0px" ry="0.0px" style="fill:none; stroke:rgb(169,169,169); stroke-width:1.0px;"/>
<rect x="2043.5px" y="208.5px" width="19.0px" height="66.0px" rx="0.0px" ry="0.0px" style="fill:rgb(255,255,255); stroke:rgb(0,0,0); stroke-width:1.0px;"/>
<path d="M 1624.0 217.0 L 1811.0 217.0" style="fill:none; stroke:rgb(0,0,0); stroke-width:1.0px;"/>
<polygon points=" 1798.0,213.0 1811.0,217.0 1798.0,221.0 " style="fill:rgb(0,0,0); stroke:rgb(0,0,0); stroke-width:1.0px;"/>
<text transform="translate(1684.0,199.0), rotate(-0.0)" x="0px" y="0px" textLength="66.0px"
 style="font-family:Arial; font-size:13.0px; fill:rgb(0,0,0); stroke:none; baseline-shift:-13.0px; ">
   sendMove()
</text>
<path d="M 1841.0 227.0 L 2038.0 227.0" style="fill:none; stroke:rgb(0,0,0); stroke-width:1.0px;"/>
<polygon points=" 2025.0,223.0 2038.0,227.0 2025.0,231.0 " style="fill:rgb(0,0,0); stroke:rgb(0,0,0); stroke-width:1.0px;"/>
<text transform="translate(1894.0,192.0), rotate(-0.0)" x="0px" y="0px" textLength="92.0px"
 style="font-family:Arial; font-size:13.0px; fill:rgb(0,0,0); stroke:none; baseline-shift:-13.0px; ">
   sendMove(move
</text>
<text transform="translate(1914.0,209.0), rotate(-0.0)" x="0px" y="0px" textLength="51.0px"
 style="font-family:Arial; font-size:13.0px; fill:rgb(0,0,0); stroke:none; baseline-shift:-13.0px; ">
   : EMove)
</text>
<path d="M 2038.0 255.0 L 1841.0 255.0" style="fill:none; stroke:rgb(0,0,0); stroke-dasharray:5 3; stroke-width:1.0px;"/>
<polyline points=" 1853.0,259.0 1841.0,255.0 1853.0,251.0 " style="fill:none; stroke:rgb(0,0,0); stroke-dasharray:5 3; stroke-width:1.0px;"/>
<text transform="translate(1887.0,237.0), rotate(-0.0)" x="0px" y="0px" textLength="105.0px"
 style="font-family:Arial; font-size:13.0px; fill:rgb(0,0,0); stroke:none; baseline-shift:-13.0px; ">
   responseEnvelope
</text>
<path d="M 1811.0 283.0 L 1624.0 283.0" style="fill:none; stroke:rgb(0,0,0); stroke-dasharray:5 3; stroke-width:1.0px;"/>
<polyline points=" 1636.0,288.0 1624.0,283.0 1636.0,279.0 " style="fill:none; stroke:rgb(0,0,0); stroke-dasharray:5 3; stroke-width:1.0px;"/>
<text transform="translate(1665.0,265.0), rotate(-0.0)" x="0px" y="0px" textLength="105.0px"
 style="font-family:Arial; font-size:13.0px; fill:rgb(0,0,0); stroke:none; baseline-shift:-13.0px; ">
   responseEnvelope
</text>
<rect x="1391.5px" y="304.5px" width="19.0px" height="76.0px" rx="0.0px" ry="0.0px" style="fill:none; stroke:rgb(219,219,219); stroke-width:1.0px;"/>
<rect x="1391.5px" y="303.5px" width="19.0px" height="76.0px" rx="0.0px" ry="0.0px" style="fill:none; stroke:rgb(219,219,219); stroke-width:1.0px;"/>
<rect x="1390.5px" y="303.5px" width="19.0px" height="76.0px" rx="0.0px" ry="0.0px" style="fill:none; stroke:rgb(169,169,169); stroke-width:1.0px;"/>
<rect x="1390.5px" y="302.5px" width="19.0px" height="76.0px" rx="0.0px" ry="0.0px" style="fill:none; stroke:rgb(169,169,169); stroke-width:1.0px;"/>
<rect x="1389.5px" y="302.5px" width="19.0px" height="76.0px" rx="0.0px" ry="0.0px" style="fill:rgb(255,255,255); stroke:rgb(0,0,0); stroke-width:1.0px;"/>
<path d="M 1593.0 321.0 L 1414.0 321.0" style="fill:none; stroke:rgb(0,0,0); stroke-width:1.0px;"/>
<polygon points=" 1426.0,325.0 1414.0,321.0 1426.0,317.0 " style="fill:rgb(0,0,0); stroke:rgb(0,0,0); stroke-width:1.0px;"/>
<text transform="translate(1449.0,303.0), rotate(-0.0)" x="0px" y="0px" textLength="110.0px"
 style="font-family:Arial; font-size:13.0px; fill:rgb(0,0,0); stroke:none; baseline-shift:-13.0px; ">
   toMap(GameState)
</text>
<path d="M 1414.0 359.0 L 1593.0 359.0" style="fill:none; stroke:rgb(0,0,0); stroke-dasharray:5 3; stroke-width:1.0px;"/>
<polyline points=" 1581.0,355.0 1593.0,359.0 1581.0,363.0 " style="fill:none; stroke:rgb(0,0,0); stroke-dasharray:5 3; stroke-width:1.0px;"/>
<text transform="translate(1440.0,341.0), rotate(-0.0)" x="0px" y="0px" textLength="128.0px"
 style="font-family:Arial; font-size:13.0px; fill:rgb(0,0,0); stroke:none; baseline-shift:-13.0px; ">
   Collection&lt;MapNode&gt;
</text>
<rect x="1164.5px" y="408.5px" width="19.0px" height="48.0px" rx="0.0px" ry="0.0px" style="fill:none; stroke:rgb(219,219,219); stroke-width:1.0px;"/>
<rect x="1164.5px" y="407.5px" width="19.0px" height="48.0px" rx="0.0px" ry="0.0px" style="fill:none; stroke:rgb(219,219,219); stroke-width:1.0px;"/>
<rect x="1163.5px" y="407.5px" width="19.0px" height="48.0px" rx="0.0px" ry="0.0px" style="fill:none; stroke:rgb(169,169,169); stroke-width:1.0px;"/>
<rect x="1163.5px" y="406.5px" width="19.0px" height="48.0px" rx="0.0px" ry="0.0px" style="fill:none; stroke:rgb(169,169,169); stroke-width:1.0px;"/>
<rect x="1162.5px" y="406.5px" width="19.0px" height="48.0px" rx="0.0px" ry="0.0px" style="fill:rgb(255,255,255); stroke:rgb(0,0,0); stroke-width:1.0px;"/>
<path d="M 1593.0 425.0 L 1187.0 425.0" style="fill:none; stroke:rgb(0,0,0); stroke-width:1.0px;"/>
<polygon points=" 1199.0,429.0 1187.0,425.0 1199.0,421.0 " style="fill:rgb(0,0,0); stroke:rgb(0,0,0); stroke-width:1.0px;"/>
<text transform="translate(1341.0,407.0), rotate(-0.0)" x="0px" y="0px" textLength="98.0px"
 style="font-family:Arial; font-size:13.0px; fill:rgb(0,0,0); stroke:none; baseline-shift:-13.0px; ">
   pickUpTreasure()
</text>
<rect x="323.5px" y="446.5px" width="19.0px" height="38.0px" rx="0.0px" ry="0.0px" style="fill:none; stroke:rgb(219,219,219); stroke-width:1.0px;"/>
<rect x="323.5px" y="445.5px" width="19.0px" height="38.0px" rx="0.0px" ry="0.0px" style="fill:none; stroke:rgb(219,219,219); stroke-width:1.0px;"/>
<rect x="322.5px" y="445.5px" width="19.0px" height="38.0px" rx="0.0px" ry="0.0px" style="fill:none; stroke:rgb(169,169,169); stroke-width:1.0px;"/>
<rect x="322.5px" y="444.5px" width="19.0px" height="38.0px" rx="0.0px" ry="0.0px" style="fill:none; stroke:rgb(169,169,169); stroke-width:1.0px;"/>
<rect x="321.5px" y="444.5px" width="19.0px" height="38.0px" rx="0.0px" ry="0.0px" style="fill:rgb(255,255,255); stroke:rgb(0,0,0); stroke-width:1.0px;"/>
<path d="M 1593.0 472.0 L 346.0 472.0" style="fill:none; stroke:rgb(0,0,0); stroke-width:1.0px;"/>
<polygon points=" 358.0,477.0 346.0,472.0 358.0,468.0 " style="fill:rgb(0,0,0); stroke:rgb(0,0,0); stroke-width:1.0px;"/>
<text transform="translate(858.0,454.0), rotate(-0.0)" x="0px" y="0px" textLength="221.0px"
 style="font-family:Arial; font-size:13.0px; fill:rgb(0,0,0); stroke:none; baseline-shift:-13.0px; ">
   updateFullMap(Collection&lt;MapNode&gt;)
</text>
<rect x="947.5px" y="489.5px" width="19.0px" height="189.0px" rx="0.0px" ry="0.0px" style="fill:none; stroke:rgb(219,219,219); stroke-width:1.0px;"/>
<rect x="947.5px" y="488.5px" width="19.0px" height="189.0px" rx="0.0px" ry="0.0px" style="fill:none; stroke:rgb(219,219,219); stroke-width:1.0px;"/>
<rect x="946.5px" y="488.5px" width="19.0px" height="189.0px" rx="0.0px" ry="0.0px" style="fill:none; stroke:rgb(169,169,169); stroke-width:1.0px;"/>
<rect x="946.5px" y="487.5px" width="19.0px" height="189.0px" rx="0.0px" ry="0.0px" style="fill:none; stroke:rgb(169,169,169); stroke-width:1.0px;"/>
<rect x="945.5px" y="487.5px" width="19.0px" height="189.0px" rx="0.0px" ry="0.0px" style="fill:rgb(255,255,255); stroke:rgb(0,0,0); stroke-width:1.0px;"/>
<path d="M 1593.0 491.0 L 969.0 491.0" style="fill:none; stroke:rgb(0,0,0); stroke-width:1.0px;"/>
<polygon points=" 982.0,495.0 969.0,491.0 982.0,487.0 " style="fill:rgb(0,0,0); stroke:rgb(0,0,0); stroke-width:1.0px;"/>
<text transform="translate(1205.0,424.0), rotate(-0.0)" x="0px" y="0px" textLength="150.0px"
 style="font-family:Arial; font-size:13.0px; fill:rgb(0,0,0); stroke:none; baseline-shift:-13.0px; ">
   getNextMove(hasTreasure
</text>
<text transform="translate(1251.0,441.0), rotate(-0.0)" x="0px" y="0px" textLength="57.0px"
 style="font-family:Arial; font-size:13.0px; fill:rgb(0,0,0); stroke:none; baseline-shift:-13.0px; ">
   : boolean,
</text>
<text transform="translate(1220.0,457.0), rotate(-0.0)" x="0px" y="0px" textLength="119.0px"
 style="font-family:Arial; font-size:13.0px; fill:rgb(0,0,0); stroke:none; baseline-shift:-13.0px; ">
   actualPlayerPosition
</text>
<text transform="translate(1267.0,473.0), rotate(-0.0)" x="0px" y="0px" textLength="26.0px"
 style="font-family:Arial; font-size:13.0px; fill:rgb(0,0,0); stroke:none; baseline-shift:-13.0px; ">
   : int)
</text>
<rect x="739.5px" y="541.5px" width="19.0px" height="104.0px" rx="0.0px" ry="0.0px" style="fill:none; stroke:rgb(219,219,219); stroke-width:1.0px;"/>
<rect x="739.5px" y="540.5px" width="19.0px" height="104.0px" rx="0.0px" ry="0.0px" style="fill:none; stroke:rgb(219,219,219); stroke-width:1.0px;"/>
<rect x="738.5px" y="540.5px" width="19.0px" height="104.0px" rx="0.0px" ry="0.0px" style="fill:none; stroke:rgb(169,169,169); stroke-width:1.0px;"/>
<rect x="738.5px" y="539.5px" width="19.0px" height="104.0px" rx="0.0px" ry="0.0px" style="fill:none; stroke:rgb(169,169,169); stroke-width:1.0px;"/>
<rect x="737.5px" y="539.5px" width="19.0px" height="104.0px" rx="0.0px" ry="0.0px" style="fill:rgb(255,255,255); stroke:rgb(0,0,0); stroke-width:1.0px;"/>
<rect x="531.5px" y="569.5px" width="19.0px" height="57.0px" rx="0.0px" ry="0.0px" style="fill:none; stroke:rgb(219,219,219); stroke-width:1.0px;"/>
<rect x="531.5px" y="568.5px" width="19.0px" height="57.0px" rx="0.0px" ry="0.0px" style="fill:none; stroke:rgb(219,219,219); stroke-width:1.0px;"/>
<rect x="530.5px" y="568.5px" width="19.0px" height="57.0px" rx="0.0px" ry="0.0px" style="fill:none; stroke:rgb(169,169,169); stroke-width:1.0px;"/>
<rect x="530.5px" y="567.5px" width="19.0px" height="57.0px" rx="0.0px" ry="0.0px" style="fill:none; stroke:rgb(169,169,169); stroke-width:1.0px;"/>
<rect x="529.5px" y="567.5px" width="19.0px" height="57.0px" rx="0.0px" ry="0.0px" style="fill:rgb(255,255,255); stroke:rgb(0,0,0); stroke-width:1.0px;"/>
<path d="M 731.0 576.0 L 554.0 576.0" style="fill:none; stroke:rgb(0,0,0); stroke-width:1.0px;"/>
<polygon points=" 566.0,581.0 554.0,576.0 566.0,572.0 " style="fill:rgb(0,0,0); stroke:rgb(0,0,0); stroke-width:1.0px;"/>
<text transform="translate(554.0,542.0), rotate(-0.0)" x="0px" y="0px" textLength="181.0px"
 style="font-family:Arial; font-size:13.0px; fill:rgb(0,0,0); stroke:none; baseline-shift:-13.0px; ">
   getPath(Collection&lt;MapNode&gt;,
</text>
<text transform="translate(609.0,558.0), rotate(-0.0)" x="0px" y="0px" textLength="72.0px"
 style="font-family:Arial; font-size:13.0px; fill:rgb(0,0,0); stroke:none; baseline-shift:-13.0px; ">
   EMapForm) 
</text>
<path d="M 554.0 605.0 L 731.0 605.0" style="fill:none; stroke:rgb(0,0,0); stroke-dasharray:5 3; stroke-width:1.0px;"/>
<polyline points=" 719.0,601.0 731.0,605.0 719.0,609.0 " style="fill:none; stroke:rgb(0,0,0); stroke-dasharray:5 3; stroke-width:1.0px;"/>
<text transform="translate(583.0,587.0), rotate(-0.0)" x="0px" y="0px" textLength="119.0px"
 style="font-family:Arial; font-size:13.0px; fill:rgb(0,0,0); stroke:none; baseline-shift:-13.0px; ">
   ArrayList&lt;Int&gt;moves
</text>
<path d="M 939.0 557.0 L 762.0 557.0" style="fill:none; stroke:rgb(0,0,0); stroke-width:1.0px;"/>
<polygon points=" 774.0,562.0 762.0,557.0 774.0,553.0 " style="fill:rgb(0,0,0); stroke:rgb(0,0,0); stroke-width:1.0px;"/>
<text transform="translate(768.0,523.0), rotate(-0.0)" x="0px" y="0px" textLength="165.0px"
 style="font-family:Arial; font-size:13.0px; fill:rgb(0,0,0); stroke:none; baseline-shift:-13.0px; ">
   updatePlayerPosition(Point),
</text>
<text transform="translate(807.0,539.0), rotate(-0.0)" x="0px" y="0px" textLength="87.0px"
 style="font-family:Arial; font-size:13.0px; fill:rgb(0,0,0); stroke:none; baseline-shift:-13.0px; ">
   calculatePath()
</text>
<path d="M 762.0 624.0 L 939.0 624.0" style="fill:none; stroke:rgb(0,0,0); stroke-dasharray:5 3; stroke-width:1.0px;"/>
<polyline points=" 927.0,619.0 939.0,624.0 927.0,628.0 " style="fill:none; stroke:rgb(0,0,0); stroke-dasharray:5 3; stroke-width:1.0px;"/>
<text transform="translate(791.0,605.0), rotate(-0.0)" x="0px" y="0px" textLength="119.0px"
 style="font-family:Arial; font-size:13.0px; fill:rgb(0,0,0); stroke:none; baseline-shift:-13.0px; ">
   ArrayList&lt;Int&gt;moves
</text>
<path d="M 969.0 633.0 L 1593.0 633.0" style="fill:none; stroke:rgb(0,0,0); stroke-dasharray:5 3; stroke-width:1.0px;"/>
<polyline points=" 1581.0,629.0 1593.0,633.0 1581.0,637.0 " style="fill:none; stroke:rgb(0,0,0); stroke-dasharray:5 3; stroke-width:1.0px;"/>
<text transform="translate(1244.0,615.0), rotate(-0.0)" x="0px" y="0px" textLength="76.0px"
 style="font-family:Arial; font-size:13.0px; fill:rgb(0,0,0); stroke:none; baseline-shift:-13.0px; ">
   EPlayerMove
</text>
<rect x="947.5px" y="711.5px" width="19.0px" height="56.0px" rx="0.0px" ry="0.0px" style="fill:none; stroke:rgb(219,219,219); stroke-width:1.0px;"/>
<rect x="947.5px" y="710.5px" width="19.0px" height="56.0px" rx="0.0px" ry="0.0px" style="fill:none; stroke:rgb(219,219,219); stroke-width:1.0px;"/>
<rect x="946.5px" y="710.5px" width="19.0px" height="56.0px" rx="0.0px" ry="0.0px" style="fill:none; stroke:rgb(169,169,169); stroke-width:1.0px;"/>
<rect x="946.5px" y="709.5px" width="19.0px" height="56.0px" rx="0.0px" ry="0.0px" style="fill:none; stroke:rgb(169,169,169); stroke-width:1.0px;"/>
<rect x="945.5px" y="709.5px" width="19.0px" height="56.0px" rx="0.0px" ry="0.0px" style="fill:rgb(255,255,255); stroke:rgb(0,0,0); stroke-width:1.0px;"/>
<path d="M 969.0 737.0 L 1593.0 737.0" style="fill:none; stroke:rgb(0,0,0); stroke-dasharray:5 3; stroke-width:1.0px;"/>
<polyline points=" 1581.0,733.0 1593.0,737.0 1581.0,741.0 " style="fill:none; stroke:rgb(0,0,0); stroke-dasharray:5 3; stroke-width:1.0px;"/>
<text transform="translate(1244.0,719.0), rotate(-0.0)" x="0px" y="0px" textLength="76.0px"
 style="font-family:Arial; font-size:13.0px; fill:rgb(0,0,0); stroke:none; baseline-shift:-13.0px; ">
   EPlayerMove
</text>
<rect x="1391.5px" y="862.5px" width="19.0px" height="66.0px" rx="0.0px" ry="0.0px" style="fill:none; stroke:rgb(219,219,219); stroke-width:1.0px;"/>
<rect x="1391.5px" y="861.5px" width="19.0px" height="66.0px" rx="0.0px" ry="0.0px" style="fill:none; stroke:rgb(219,219,219); stroke-width:1.0px;"/>
<rect x="1390.5px" y="861.5px" width="19.0px" height="66.0px" rx="0.0px" ry="0.0px" style="fill:none; stroke:rgb(169,169,169); stroke-width:1.0px;"/>
<rect x="1390.5px" y="860.5px" width="19.0px" height="66.0px" rx="0.0px" ry="0.0px" style="fill:none; stroke:rgb(169,169,169); stroke-width:1.0px;"/>
<rect x="1389.5px" y="860.5px" width="19.0px" height="66.0px" rx="0.0px" ry="0.0px" style="fill:rgb(255,255,255); stroke:rgb(0,0,0); stroke-width:1.0px;"/>
<rect x="1599.5px" y="843.5px" width="19.0px" height="104.0px" rx="0.0px" ry="0.0px" style="fill:none; stroke:rgb(219,219,219); stroke-width:1.0px;"/>
<rect x="1599.5px" y="842.5px" width="19.0px" height="104.0px" rx="0.0px" ry="0.0px" style="fill:none; stroke:rgb(219,219,219); stroke-width:1.0px;"/>
<rect x="1598.5px" y="842.5px" width="19.0px" height="104.0px" rx="0.0px" ry="0.0px" style="fill:none; stroke:rgb(169,169,169); stroke-width:1.0px;"/>
<rect x="1598.5px" y="841.5px" width="19.0px" height="104.0px" rx="0.0px" ry="0.0px" style="fill:none; stroke:rgb(169,169,169); stroke-width:1.0px;"/>
<rect x="1597.5px" y="841.5px" width="19.0px" height="104.0px" rx="0.0px" ry="0.0px" style="fill:rgb(255,255,255); stroke:rgb(0,0,0); stroke-width:1.0px;"/>
<path d="M 1591.0 869.0 L 1414.0 869.0" style="fill:none; stroke:rgb(0,0,0); stroke-width:1.0px;"/>
<polygon points=" 1426.0,873.0 1414.0,869.0 1426.0,865.0 " style="fill:rgb(0,0,0); stroke:rgb(0,0,0); stroke-width:1.0px;"/>
<text transform="translate(1453.0,851.0), rotate(-0.0)" x="0px" y="0px" textLength="99.0px"
 style="font-family:Arial; font-size:13.0px; fill:rgb(0,0,0); stroke:none; baseline-shift:-13.0px; ">
   to(EPlayerMove) 
</text>
<path d="M 1414.0 907.0 L 1591.0 907.0" style="fill:none; stroke:rgb(0,0,0); stroke-dasharray:5 3; stroke-width:1.0px;"/>
<polyline points=" 1579.0,903.0 1591.0,907.0 1579.0,911.0 " style="fill:none; stroke:rgb(0,0,0); stroke-dasharray:5 3; stroke-width:1.0px;"/>
<text transform="translate(1483.0,889.0), rotate(-0.0)" x="0px" y="0px" textLength="39.0px"
 style="font-family:Arial; font-size:13.0px; fill:rgb(0,0,0); stroke:none; baseline-shift:-13.0px; ">
   EMove
</text>
<rect x="1816.5px" y="919.5px" width="19.0px" height="160.0px" rx="0.0px" ry="0.0px" style="fill:none; stroke:rgb(219,219,219); stroke-width:1.0px;"/>
<rect x="1816.5px" y="918.5px" width="19.0px" height="160.0px" rx="0.0px" ry="0.0px" style="fill:none; stroke:rgb(219,219,219); stroke-width:1.0px;"/>
<rect x="1815.5px" y="918.5px" width="19.0px" height="160.0px" rx="0.0px" ry="0.0px" style="fill:none; stroke:rgb(169,169,169); stroke-width:1.0px;"/>
<rect x="1815.5px" y="917.5px" width="19.0px" height="160.0px" rx="0.0px" ry="0.0px" style="fill:none; stroke:rgb(169,169,169); stroke-width:1.0px;"/>
<rect x="1814.5px" y="917.5px" width="19.0px" height="160.0px" rx="0.0px" ry="0.0px" style="fill:rgb(255,255,255); stroke:rgb(0,0,0); stroke-width:1.0px;"/>
<rect x="2043.5px" y="961.5px" width="19.0px" height="114.0px" rx="0.0px" ry="0.0px" style="fill:none; stroke:rgb(219,219,219); stroke-width:1.0px;"/>
<rect x="2043.5px" y="960.5px" width="19.0px" height="114.0px" rx="0.0px" ry="0.0px" style="fill:none; stroke:rgb(219,219,219); stroke-width:1.0px;"/>
<rect x="2042.5px" y="960.5px" width="19.0px" height="114.0px" rx="0.0px" ry="0.0px" style="fill:none; stroke:rgb(169,169,169); stroke-width:1.0px;"/>
<rect x="2042.5px" y="959.5px" width="19.0px" height="114.0px" rx="0.0px" ry="0.0px" style="fill:none; stroke:rgb(169,169,169); stroke-width:1.0px;"/>
<rect x="2041.5px" y="959.5px" width="19.0px" height="114.0px" rx="0.0px" ry="0.0px" style="fill:rgb(255,255,255); stroke:rgb(0,0,0); stroke-width:1.0px;"/>
<path d="M 1621.0 926.0 L 1809.0 926.0" style="fill:none; stroke:rgb(0,0,0); stroke-width:1.0px;"/>
<polygon points=" 1796.0,922.0 1809.0,926.0 1796.0,930.0 " style="fill:rgb(0,0,0); stroke:rgb(0,0,0); stroke-width:1.0px;"/>
<text transform="translate(1680.0,908.0), rotate(-0.0)" x="0px" y="0px" textLength="70.0px"
 style="font-family:Arial; font-size:13.0px; fill:rgb(0,0,0); stroke:none; baseline-shift:-13.0px; ">
   sendMove() 
</text>
<text transform="translate(1805.0,954.0), rotate(-0.0)" x="0px" y="0px" textLength="264.0px"
 style="font-family:Arial; font-size:26.0px; fill:rgb(0,0,0); stroke:none; baseline-shift:-25.0px; ">
   {bis client agieren darf}
</text>
<path d="M 1839.0 1011.0 L 2035.0 1011.0" style="fill:none; stroke:rgb(0,0,0); stroke-width:1.0px;"/>
<polygon points=" 2023.0,1007.0 2035.0,1011.0 2023.0,1015.0 " style="fill:rgb(0,0,0); stroke:rgb(0,0,0); stroke-width:1.0px;"/>
<text transform="translate(1891.0,993.0), rotate(-0.0)" x="0px" y="0px" textLength="92.0px"
 style="font-family:Arial; font-size:13.0px; fill:rgb(0,0,0); stroke:none; baseline-shift:-13.0px; ">
   getGameState()
</text>
<path d="M 2035.0 1039.0 L 1839.0 1039.0" style="fill:none; stroke:rgb(0,0,0); stroke-dasharray:5 3; stroke-width:1.0px;"/>
<polyline points=" 1851.0,1044.0 1839.0,1039.0 1851.0,1035.0 " style="fill:none; stroke:rgb(0,0,0); stroke-dasharray:5 3; stroke-width:1.0px;"/>
<text transform="translate(1885.0,1021.0), rotate(-0.0)" x="0px" y="0px" textLength="105.0px"
 style="font-family:Arial; font-size:13.0px; fill:rgb(0,0,0); stroke:none; baseline-shift:-13.0px; ">
   responseEnvelope
</text>
<rect x="1816.5px" y="1098.5px" width="19.0px" height="66.0px" rx="0.0px" ry="0.0px" style="fill:none; stroke:rgb(219,219,219); stroke-width:1.0px;"/>
<rect x="1816.5px" y="1097.5px" width="19.0px" height="66.0px" rx="0.0px" ry="0.0px" style="fill:none; stroke:rgb(219,219,219); stroke-width:1.0px;"/>
<rect x="1815.5px" y="1097.5px" width="19.0px" height="66.0px" rx="0.0px" ry="0.0px" style="fill:none; stroke:rgb(169,169,169); stroke-width:1.0px;"/>
<rect x="1815.5px" y="1096.5px" width="19.0px" height="66.0px" rx="0.0px" ry="0.0px" style="fill:none; stroke:rgb(169,169,169); stroke-width:1.0px;"/>
<rect x="1814.5px" y="1096.5px" width="19.0px" height="66.0px" rx="0.0px" ry="0.0px" style="fill:rgb(255,255,255); stroke:rgb(0,0,0); stroke-width:1.0px;"/>
<rect x="2043.5px" y="1098.5px" width="19.0px" height="57.0px" rx="0.0px" ry="0.0px" style="fill:none; stroke:rgb(219,219,219); stroke-width:1.0px;"/>
<rect x="2043.5px" y="1097.5px" width="19.0px" height="57.0px" rx="0.0px" ry="0.0px" style="fill:none; stroke:rgb(219,219,219); stroke-width:1.0px;"/>
<rect x="2042.5px" y="1097.5px" width="19.0px" height="57.0px" rx="0.0px" ry="0.0px" style="fill:none; stroke:rgb(169,169,169); stroke-width:1.0px;"/>
<rect x="2042.5px" y="1096.5px" width="19.0px" height="57.0px" rx="0.0px" ry="0.0px" style="fill:none; stroke:rgb(169,169,169); stroke-width:1.0px;"/>
<rect x="2041.5px" y="1096.5px" width="19.0px" height="57.0px" rx="0.0px" ry="0.0px" style="fill:rgb(255,255,255); stroke:rgb(0,0,0); stroke-width:1.0px;"/>
<path d="M 1839.0 1115.0 L 2035.0 1115.0" style="fill:none; stroke:rgb(0,0,0); stroke-width:1.0px;"/>
<polygon points=" 2023.0,1111.0 2035.0,1115.0 2023.0,1119.0 " style="fill:rgb(0,0,0); stroke:rgb(0,0,0); stroke-width:1.0px;"/>
<text transform="translate(1904.0,1097.0), rotate(-0.0)" x="0px" y="0px" textLength="66.0px"
 style="font-family:Arial; font-size:13.0px; fill:rgb(0,0,0); stroke:none; baseline-shift:-13.0px; ">
   sendMove()
</text>
<path d="M 2035.0 1143.0 L 1839.0 1143.0" style="fill:none; stroke:rgb(0,0,0); stroke-dasharray:5 3; stroke-width:1.0px;"/>
<polyline points=" 1851.0,1147.0 1839.0,1143.0 1851.0,1139.0 " style="fill:none; stroke:rgb(0,0,0); stroke-dasharray:5 3; stroke-width:1.0px;"/>
<text transform="translate(1909.0,1109.0), rotate(-0.0)" x="0px" y="0px" textLength="53.0px"
 style="font-family:Arial; font-size:13.0px; fill:rgb(0,0,0); stroke:none; baseline-shift:-13.0px; ">
   bestätige
</text>
<text transform="translate(1912.0,1125.0), rotate(-0.0)" x="0px" y="0px" textLength="49.0px"
 style="font-family:Arial; font-size:13.0px; fill:rgb(0,0,0); stroke:none; baseline-shift:-13.0px; ">
   empfang
</text>
</g>
</svg>
