<?xml version="1.0" encoding="UTF-8" standalone="no"?>
<svg width="2374.0px" height="1121.0px" version="1.1" xmlns="http://www.w3.org/2000/svg" xmlns:xlink="http://www.w3.org/1999/xlink">
<g>
<rect x="0.0px" y="0.0px" width="2374.0px" height="1121.0px" rx="0.0px" ry="0.0px" style="fill:rgb(255,255,255);"/>
<rect x="1278.5px" y="238.5px" width="207.0px" height="38.0px" rx="0.0px" ry="0.0px" style="fill:none; stroke:rgb(219,219,219); stroke-width:1.0px;"/>
<line x1="1382.0px" y1="276.0px" x2="1382.0px" y2="739.0px" style="stroke:rgb(219,219,219); stroke-dasharray:2 3; stroke-width:1.0px;"/>
<rect x="1278.5px" y="237.5px" width="207.0px" height="38.0px" rx="0.0px" ry="0.0px" style="fill:none; stroke:rgb(219,219,219); stroke-width:1.0px;"/>
<line x1="1382.0px" y1="275.0px" x2="1382.0px" y2="738.0px" style="stroke:rgb(219,219,219); stroke-dasharray:2 3; stroke-width:1.0px;"/>
<rect x="1277.5px" y="237.5px" width="207.0px" height="38.0px" rx="0.0px" ry="0.0px" style="fill:none; stroke:rgb(169,169,169); stroke-width:1.0px;"/>
<line x1="1381.0px" y1="275.0px" x2="1381.0px" y2="738.0px" style="stroke:rgb(169,169,169); stroke-dasharray:2 3; stroke-width:1.0px;"/>
<rect x="1277.5px" y="236.5px" width="207.0px" height="38.0px" rx="0.0px" ry="0.0px" style="fill:none; stroke:rgb(169,169,169); stroke-width:1.0px;"/>
<line x1="1381.0px" y1="274.0px" x2="1381.0px" y2="737.0px" style="stroke:rgb(169,169,169); stroke-dasharray:2 3; stroke-width:1.0px;"/>
<rect x="1276.5px" y="236.5px" width="207.0px" height="38.0px" rx="0.0px" ry="0.0px" style="fill:rgb(255,255,255); stroke:rgb(0,0,0); stroke-width:1.0px;"/>
<line x1="1380.0px" y1="274.0px" x2="1380.0px" y2="737.0px" style="stroke:rgb(0,0,0); stroke-dasharray:2 3; stroke-width:1.0px;"/>
<text transform="translate(1338.0,247.0), rotate(-0.0)" x="0px" y="0px" textLength="83.0px"
 style="font-family:Arial; font-size:13.0px; fill:rgb(0,0,0); stroke:none; baseline-shift:-13.0px; ">
   ServerNetwork
</text>
<rect x="1481.5px" y="238.5px" width="217.0px" height="38.0px" rx="0.0px" ry="0.0px" style="fill:none; stroke:rgb(219,219,219); stroke-width:1.0px;"/>
<line x1="1589.0px" y1="276.0px" x2="1589.0px" y2="739.0px" style="stroke:rgb(219,219,219); stroke-dasharray:2 3; stroke-width:1.0px;"/>
<rect x="1481.5px" y="237.5px" width="217.0px" height="38.0px" rx="0.0px" ry="0.0px" style="fill:none; stroke:rgb(219,219,219); stroke-width:1.0px;"/>
<line x1="1589.0px" y1="275.0px" x2="1589.0px" y2="738.0px" style="stroke:rgb(219,219,219); stroke-dasharray:2 3; stroke-width:1.0px;"/>
<rect x="1480.5px" y="237.5px" width="217.0px" height="38.0px" rx="0.0px" ry="0.0px" style="fill:none; stroke:rgb(169,169,169); stroke-width:1.0px;"/>
<line x1="1588.0px" y1="275.0px" x2="1588.0px" y2="738.0px" style="stroke:rgb(169,169,169); stroke-dasharray:2 3; stroke-width:1.0px;"/>
<rect x="1480.5px" y="236.5px" width="217.0px" height="38.0px" rx="0.0px" ry="0.0px" style="fill:none; stroke:rgb(169,169,169); stroke-width:1.0px;"/>
<line x1="1588.0px" y1="274.0px" x2="1588.0px" y2="737.0px" style="stroke:rgb(169,169,169); stroke-dasharray:2 3; stroke-width:1.0px;"/>
<rect x="1479.5px" y="236.5px" width="217.0px" height="38.0px" rx="0.0px" ry="0.0px" style="fill:rgb(255,255,255); stroke:rgb(0,0,0); stroke-width:1.0px;"/>
<line x1="1587.0px" y1="274.0px" x2="1587.0px" y2="737.0px" style="stroke:rgb(0,0,0); stroke-dasharray:2 3; stroke-width:1.0px;"/>
<text transform="translate(1560.0,247.0), rotate(-0.0)" x="0px" y="0px" textLength="55.0px"
 style="font-family:Arial; font-size:13.0px; fill:rgb(0,0,0); stroke:none; baseline-shift:-13.0px; ">
   Controller
</text>
<rect x="1693.5px" y="238.5px" width="227.0px" height="38.0px" rx="0.0px" ry="0.0px" style="fill:none; stroke:rgb(219,219,219); stroke-width:1.0px;"/>
<line x1="1807.0px" y1="276.0px" x2="1807.0px" y2="635.0px" style="stroke:rgb(219,219,219); stroke-dasharray:2 3; stroke-width:1.0px;"/>
<rect x="1693.5px" y="237.5px" width="227.0px" height="38.0px" rx="0.0px" ry="0.0px" style="fill:none; stroke:rgb(219,219,219); stroke-width:1.0px;"/>
<line x1="1807.0px" y1="275.0px" x2="1807.0px" y2="634.0px" style="stroke:rgb(219,219,219); stroke-dasharray:2 3; stroke-width:1.0px;"/>
<rect x="1692.5px" y="237.5px" width="227.0px" height="38.0px" rx="0.0px" ry="0.0px" style="fill:none; stroke:rgb(169,169,169); stroke-width:1.0px;"/>
<line x1="1806.0px" y1="275.0px" x2="1806.0px" y2="634.0px" style="stroke:rgb(169,169,169); stroke-dasharray:2 3; stroke-width:1.0px;"/>
<rect x="1692.5px" y="236.5px" width="227.0px" height="38.0px" rx="0.0px" ry="0.0px" style="fill:none; stroke:rgb(169,169,169); stroke-width:1.0px;"/>
<line x1="1806.0px" y1="274.0px" x2="1806.0px" y2="633.0px" style="stroke:rgb(169,169,169); stroke-dasharray:2 3; stroke-width:1.0px;"/>
<rect x="1691.5px" y="236.5px" width="227.0px" height="38.0px" rx="0.0px" ry="0.0px" style="fill:rgb(255,255,255); stroke:rgb(0,0,0); stroke-width:1.0px;"/>
<line x1="1805.0px" y1="274.0px" x2="1805.0px" y2="633.0px" style="stroke:rgb(0,0,0); stroke-dasharray:2 3; stroke-width:1.0px;"/>
<text transform="translate(1778.0,247.0), rotate(-0.0)" x="0px" y="0px" textLength="54.0px"
 style="font-family:Arial; font-size:13.0px; fill:rgb(0,0,0); stroke:none; baseline-shift:-13.0px; ">
   Converter
</text>
<rect x="1920.5px" y="238.5px" width="227.0px" height="38.0px" rx="0.0px" ry="0.0px" style="fill:none; stroke:rgb(219,219,219); stroke-width:1.0px;"/>
<line x1="2033.0px" y1="276.0px" x2="2033.0px" y2="635.0px" style="stroke:rgb(219,219,219); stroke-dasharray:2 3; stroke-width:1.0px;"/>
<rect x="1920.5px" y="237.5px" width="227.0px" height="38.0px" rx="0.0px" ry="0.0px" style="fill:none; stroke:rgb(219,219,219); stroke-width:1.0px;"/>
<line x1="2033.0px" y1="275.0px" x2="2033.0px" y2="634.0px" style="stroke:rgb(219,219,219); stroke-dasharray:2 3; stroke-width:1.0px;"/>
<rect x="1919.5px" y="237.5px" width="227.0px" height="38.0px" rx="0.0px" ry="0.0px" style="fill:none; stroke:rgb(169,169,169); stroke-width:1.0px;"/>
<line x1="2032.0px" y1="275.0px" x2="2032.0px" y2="634.0px" style="stroke:rgb(169,169,169); stroke-dasharray:2 3; stroke-width:1.0px;"/>
<rect x="1919.5px" y="236.5px" width="227.0px" height="38.0px" rx="0.0px" ry="0.0px" style="fill:none; stroke:rgb(169,169,169); stroke-width:1.0px;"/>
<line x1="2032.0px" y1="274.0px" x2="2032.0px" y2="633.0px" style="stroke:rgb(169,169,169); stroke-dasharray:2 3; stroke-width:1.0px;"/>
<rect x="1918.5px" y="236.5px" width="227.0px" height="38.0px" rx="0.0px" ry="0.0px" style="fill:rgb(255,255,255); stroke:rgb(0,0,0); stroke-width:1.0px;"/>
<line x1="2031.0px" y1="274.0px" x2="2031.0px" y2="633.0px" style="stroke:rgb(0,0,0); stroke-dasharray:2 3; stroke-width:1.0px;"/>
<text transform="translate(1991.0,247.0), rotate(-0.0)" x="0px" y="0px" textLength="82.0px"
 style="font-family:Arial; font-size:13.0px; fill:rgb(0,0,0); stroke:none; baseline-shift:-13.0px; ">
   FullMapServer
</text>
<rect x="2147.5px" y="238.5px" width="227.0px" height="38.0px" rx="0.0px" ry="0.0px" style="fill:none; stroke:rgb(219,219,219); stroke-width:1.0px;"/>
<line x1="2260.0px" y1="276.0px" x2="2260.0px" y2="635.0px" style="stroke:rgb(219,219,219); stroke-dasharray:2 3; stroke-width:1.0px;"/>
<rect x="2147.5px" y="237.5px" width="227.0px" height="38.0px" rx="0.0px" ry="0.0px" style="fill:none; stroke:rgb(219,219,219); stroke-width:1.0px;"/>
<line x1="2260.0px" y1="275.0px" x2="2260.0px" y2="634.0px" style="stroke:rgb(219,219,219); stroke-dasharray:2 3; stroke-width:1.0px;"/>
<rect x="2146.5px" y="237.5px" width="227.0px" height="38.0px" rx="0.0px" ry="0.0px" style="fill:none; stroke:rgb(169,169,169); stroke-width:1.0px;"/>
<line x1="2259.0px" y1="275.0px" x2="2259.0px" y2="634.0px" style="stroke:rgb(169,169,169); stroke-dasharray:2 3; stroke-width:1.0px;"/>
<rect x="2146.5px" y="236.5px" width="227.0px" height="38.0px" rx="0.0px" ry="0.0px" style="fill:none; stroke:rgb(169,169,169); stroke-width:1.0px;"/>
<line x1="2259.0px" y1="274.0px" x2="2259.0px" y2="633.0px" style="stroke:rgb(169,169,169); stroke-dasharray:2 3; stroke-width:1.0px;"/>
<rect x="2145.5px" y="236.5px" width="227.0px" height="38.0px" rx="0.0px" ry="0.0px" style="fill:rgb(255,255,255); stroke:rgb(0,0,0); stroke-width:1.0px;"/>
<line x1="2258.0px" y1="274.0px" x2="2258.0px" y2="633.0px" style="stroke:rgb(0,0,0); stroke-dasharray:2 3; stroke-width:1.0px;"/>
<text transform="translate(2220.0,247.0), rotate(-0.0)" x="0px" y="0px" textLength="76.0px"
 style="font-family:Arial; font-size:13.0px; fill:rgb(0,0,0); stroke:none; baseline-shift:-13.0px; ">
   MapValidator
</text>
<rect x="1824.5px" y="737.5px" width="396.0px" height="76.0px" rx="0.0px" ry="0.0px" style="fill:rgb(255,250,205); stroke:rgb(169,169,169); stroke-width:1.0px;"/>
<text transform="translate(1829.0,743.0), rotate(-0.0)" x="0px" y="0px" textLength="362.0px"
 style="font-family:Arial; font-size:13.0px; fill:rgb(0,0,0); stroke:none; baseline-shift:-13.0px; ">
   Das vollst채ndige empfangen, verarbeiten und beantworten einer
</text>
<text transform="translate(1829.0,759.0), rotate(-0.0)" x="0px" y="0px" textLength="361.0px"
 style="font-family:Arial; font-size:13.0px; fill:rgb(0,0,0); stroke:none; baseline-shift:-13.0px; ">
   체ber den /halfmaps Endpoint einlangenden Kartenh채lfte. Leider
</text>
<text transform="translate(1829.0,775.0), rotate(-0.0)" x="0px" y="0px" textLength="213.0px"
 style="font-family:Arial; font-size:13.0px; fill:rgb(0,0,0); stroke:none; baseline-shift:-13.0px; ">
   beinhaltet die Kartenh채lfte eine Insel.
</text>
<rect x="1372.5px" y="323.5px" width="19.0px" height="95.0px" rx="0.0px" ry="0.0px" style="fill:none; stroke:rgb(219,219,219); stroke-width:1.0px;"/>
<rect x="1372.5px" y="322.5px" width="19.0px" height="95.0px" rx="0.0px" ry="0.0px" style="fill:none; stroke:rgb(219,219,219); stroke-width:1.0px;"/>
<rect x="1371.5px" y="322.5px" width="19.0px" height="95.0px" rx="0.0px" ry="0.0px" style="fill:none; stroke:rgb(169,169,169); stroke-width:1.0px;"/>
<rect x="1371.5px" y="321.5px" width="19.0px" height="95.0px" rx="0.0px" ry="0.0px" style="fill:none; stroke:rgb(169,169,169); stroke-width:1.0px;"/>
<rect x="1370.5px" y="321.5px" width="19.0px" height="95.0px" rx="0.0px" ry="0.0px" style="fill:rgb(255,255,255); stroke:rgb(0,0,0); stroke-width:1.0px;"/>
<rect x="1580.5px" y="323.5px" width="19.0px" height="350.0px" rx="0.0px" ry="0.0px" style="fill:none; stroke:rgb(219,219,219); stroke-width:1.0px;"/>
<rect x="1580.5px" y="322.5px" width="19.0px" height="350.0px" rx="0.0px" ry="0.0px" style="fill:none; stroke:rgb(219,219,219); stroke-width:1.0px;"/>
<rect x="1579.5px" y="322.5px" width="19.0px" height="350.0px" rx="0.0px" ry="0.0px" style="fill:none; stroke:rgb(169,169,169); stroke-width:1.0px;"/>
<rect x="1579.5px" y="321.5px" width="19.0px" height="350.0px" rx="0.0px" ry="0.0px" style="fill:none; stroke:rgb(169,169,169); stroke-width:1.0px;"/>
<rect x="1578.5px" y="321.5px" width="19.0px" height="350.0px" rx="0.0px" ry="0.0px" style="fill:rgb(255,255,255); stroke:rgb(0,0,0); stroke-width:1.0px;"/>
<path d="M 1572.0 340.0 L 1395.0 340.0" style="fill:none; stroke:rgb(0,0,0); stroke-width:1.0px;"/>
<polygon points=" 1407.0,344.0 1395.0,340.0 1407.0,336.0 " style="fill:rgb(0,0,0); stroke:rgb(0,0,0); stroke-width:1.0px;"/>
<text transform="translate(1405.0,322.0), rotate(-0.0)" x="0px" y="0px" textLength="157.0px"
 style="font-family:Arial; font-size:13.0px; fill:rgb(0,0,0); stroke:none; baseline-shift:-13.0px; ">
   receiveMap(PlayerHalfMap)
</text>
<path d="M 1395.0 387.0 L 1572.0 387.0" style="fill:none; stroke:rgb(0,0,0); stroke-dasharray:5 3; stroke-width:1.0px;"/>
<polyline points=" 1560.0,383.0 1572.0,387.0 1560.0,392.0 " style="fill:none; stroke:rgb(0,0,0); stroke-dasharray:5 3; stroke-width:1.0px;"/>
<rect x="1797.5px" y="361.5px" width="19.0px" height="95.0px" rx="0.0px" ry="0.0px" style="fill:none; stroke:rgb(219,219,219); stroke-width:1.0px;"/>
<rect x="1797.5px" y="360.5px" width="19.0px" height="95.0px" rx="0.0px" ry="0.0px" style="fill:none; stroke:rgb(219,219,219); stroke-width:1.0px;"/>
<rect x="1796.5px" y="360.5px" width="19.0px" height="95.0px" rx="0.0px" ry="0.0px" style="fill:none; stroke:rgb(169,169,169); stroke-width:1.0px;"/>
<rect x="1796.5px" y="359.5px" width="19.0px" height="95.0px" rx="0.0px" ry="0.0px" style="fill:none; stroke:rgb(169,169,169); stroke-width:1.0px;"/>
<rect x="1795.5px" y="359.5px" width="19.0px" height="95.0px" rx="0.0px" ry="0.0px" style="fill:rgb(255,255,255); stroke:rgb(0,0,0); stroke-width:1.0px;"/>
<rect x="2024.5px" y="484.5px" width="19.0px" height="132.0px" rx="0.0px" ry="0.0px" style="fill:none; stroke:rgb(219,219,219); stroke-width:1.0px;"/>
<rect x="2024.5px" y="483.5px" width="19.0px" height="132.0px" rx="0.0px" ry="0.0px" style="fill:none; stroke:rgb(219,219,219); stroke-width:1.0px;"/>
<rect x="2023.5px" y="483.5px" width="19.0px" height="132.0px" rx="0.0px" ry="0.0px" style="fill:none; stroke:rgb(169,169,169); stroke-width:1.0px;"/>
<rect x="2023.5px" y="482.5px" width="19.0px" height="132.0px" rx="0.0px" ry="0.0px" style="fill:none; stroke:rgb(169,169,169); stroke-width:1.0px;"/>
<rect x="2022.5px" y="482.5px" width="19.0px" height="132.0px" rx="0.0px" ry="0.0px" style="fill:rgb(255,255,255); stroke:rgb(0,0,0); stroke-width:1.0px;"/>
<path d="M 1603.0 387.0 L 1790.0 387.0" style="fill:none; stroke:rgb(0,0,0); stroke-width:1.0px;"/>
<polygon points=" 1777.0,383.0 1790.0,387.0 1777.0,392.0 " style="fill:rgb(0,0,0); stroke:rgb(0,0,0); stroke-width:1.0px;"/>
<text transform="translate(1621.0,369.0), rotate(-0.0)" x="0px" y="0px" textLength="151.0px"
 style="font-family:Arial; font-size:13.0px; fill:rgb(0,0,0); stroke:none; baseline-shift:-13.0px; ">
   convertTo(PlayerHalfMap) 
</text>
<path d="M 1790.0 435.0 L 1603.0 435.0" style="fill:none; stroke:rgb(0,0,0); stroke-dasharray:5 3; stroke-width:1.0px;"/>
<polyline points=" 1615.0,439.0 1603.0,435.0 1615.0,430.0 " style="fill:none; stroke:rgb(0,0,0); stroke-dasharray:5 3; stroke-width:1.0px;"/>
<text transform="translate(1640.0,417.0), rotate(-0.0)" x="0px" y="0px" textLength="112.0px"
 style="font-family:Arial; font-size:13.0px; fill:rgb(0,0,0); stroke:none; baseline-shift:-13.0px; ">
   Set&lt;FullMapNode&gt;
</text>
<path d="M 1603.0 501.0 L 2016.0 501.0" style="fill:none; stroke:rgb(0,0,0); stroke-width:1.0px;"/>
<polygon points=" 2004.0,497.0 2016.0,501.0 2004.0,505.0 " style="fill:rgb(0,0,0); stroke:rgb(0,0,0); stroke-width:1.0px;"/>
<text transform="translate(1698.0,483.0), rotate(-0.0)" x="0px" y="0px" textLength="223.0px"
 style="font-family:Arial; font-size:13.0px; fill:rgb(0,0,0); stroke:none; baseline-shift:-13.0px; ">
   assembleHalfMap(Set&lt;FullMapNode&gt;)
</text>
<rect x="2251.5px" y="512.5px" width="19.0px" height="66.0px" rx="0.0px" ry="0.0px" style="fill:none; stroke:rgb(219,219,219); stroke-width:1.0px;"/>
<rect x="2251.5px" y="511.5px" width="19.0px" height="66.0px" rx="0.0px" ry="0.0px" style="fill:none; stroke:rgb(219,219,219); stroke-width:1.0px;"/>
<rect x="2250.5px" y="511.5px" width="19.0px" height="66.0px" rx="0.0px" ry="0.0px" style="fill:none; stroke:rgb(169,169,169); stroke-width:1.0px;"/>
<rect x="2250.5px" y="510.5px" width="19.0px" height="66.0px" rx="0.0px" ry="0.0px" style="fill:none; stroke:rgb(169,169,169); stroke-width:1.0px;"/>
<rect x="2249.5px" y="510.5px" width="19.0px" height="66.0px" rx="0.0px" ry="0.0px" style="fill:rgb(255,255,255); stroke:rgb(0,0,0); stroke-width:1.0px;"/>
<path d="M 2047.0 520.0 L 2243.0 520.0" style="fill:none; stroke:rgb(0,0,0); stroke-width:1.0px;"/>
<polygon points=" 2231.0,516.0 2243.0,520.0 2231.0,524.0 " style="fill:rgb(0,0,0); stroke:rgb(0,0,0); stroke-width:1.0px;"/>
<text transform="translate(2033.0,502.0), rotate(-0.0)" x="0px" y="0px" textLength="225.0px"
 style="font-family:Arial; font-size:13.0px; fill:rgb(0,0,0); stroke:none; baseline-shift:-13.0px; ">
   checkIfMapIsValid(Set&lt;FullMapNode&gt;)
</text>
<path d="M 2243.0 567.0 L 2047.0 567.0" style="fill:none; stroke:rgb(0,0,0); stroke-dasharray:5 3; stroke-width:1.0px;"/>
<polyline points=" 2059.0,571.0 2047.0,567.0 2059.0,563.0 " style="fill:none; stroke:rgb(0,0,0); stroke-dasharray:5 3; stroke-width:1.0px;"/>
<text transform="translate(2132.0,549.0), rotate(-0.0)" x="0px" y="0px" textLength="27.0px"
 style="font-family:Arial; font-size:13.0px; fill:rgb(0,0,0); stroke:none; baseline-shift:-13.0px; ">
   false
</text>
<path d="M 2016.0 586.0 L 1603.0 586.0" style="fill:none; stroke:rgb(0,0,0); stroke-dasharray:5 3; stroke-width:1.0px;"/>
<polyline points=" 1615.0,590.0 1603.0,586.0 1615.0,582.0 " style="fill:none; stroke:rgb(0,0,0); stroke-dasharray:5 3; stroke-width:1.0px;"/>
<text transform="translate(1796.0,568.0), rotate(-0.0)" x="0px" y="0px" textLength="27.0px"
 style="font-family:Arial; font-size:13.0px; fill:rgb(0,0,0); stroke:none; baseline-shift:-13.0px; ">
   false
</text>
<rect x="1372.5px" y="607.5px" width="19.0px" height="56.0px" rx="0.0px" ry="0.0px" style="fill:none; stroke:rgb(219,219,219); stroke-width:1.0px;"/>
<rect x="1372.5px" y="606.5px" width="19.0px" height="56.0px" rx="0.0px" ry="0.0px" style="fill:none; stroke:rgb(219,219,219); stroke-width:1.0px;"/>
<rect x="1371.5px" y="606.5px" width="19.0px" height="56.0px" rx="0.0px" ry="0.0px" style="fill:none; stroke:rgb(169,169,169); stroke-width:1.0px;"/>
<rect x="1371.5px" y="605.5px" width="19.0px" height="56.0px" rx="0.0px" ry="0.0px" style="fill:none; stroke:rgb(169,169,169); stroke-width:1.0px;"/>
<rect x="1370.5px" y="605.5px" width="19.0px" height="56.0px" rx="0.0px" ry="0.0px" style="fill:rgb(255,255,255); stroke:rgb(0,0,0); stroke-width:1.0px;"/>
<path d="M 1572.0 624.0 L 1395.0 624.0" style="fill:none; stroke:rgb(0,0,0); stroke-width:1.0px;"/>
<polygon points=" 1407.0,628.0 1395.0,624.0 1407.0,619.0 " style="fill:rgb(0,0,0); stroke:rgb(0,0,0); stroke-width:1.0px;"/>
<text transform="translate(1429.0,605.0), rotate(-0.0)" x="0px" y="0px" textLength="109.0px"
 style="font-family:Arial; font-size:13.0px; fill:rgb(0,0,0); stroke:none; baseline-shift:-13.0px; ">
   sendGameStatus()
</text>
</g>
</svg>
